<svg width="490" height="516" viewBox="0 0 490 516" fill="none" xmlns="http://www.w3.org/2000/svg">
<path d="M420.21 193.106C394.707 82.8665 306.587 3.28893 203.152 0.0971438C148.469 -1.59027 90.9279 18.3461 49.0334 88.1108C-25.8575 212.823 53.6356 299.003 109.056 339.954C135.831 359.778 159.957 383.615 180.734 410.774C218.169 459.606 290.185 520.288 375.953 425.209C438.117 356.296 437.198 266.537 420.21 193.106Z" fill="#F2F2F2"/>
<path d="M489.432 438.604C489.432 465.664 382.013 516 246.703 516C111.394 516 0 468.785 0 441.725C0 414.665 111.394 418.007 246.703 418.007C382.013 418.007 489.432 411.544 489.432 438.604Z" fill="#3F3D56"/>
<path opacity="0.1" d="M489.432 438.604C489.432 465.664 382.013 516 246.703 516C111.394 516 0 468.785 0 441.725C0 414.665 111.394 418.007 246.703 418.007C382.013 418.007 489.432 411.544 489.432 438.604Z" fill="black"/>
<path d="M245 490.41C380.31 490.41 490 468.473 490 441.413C490 414.353 380.31 392.417 245 392.417C109.69 392.417 0 414.353 0 441.413C0 468.473 109.69 490.41 245 490.41Z" fill="#3F3D56"/>
<path d="M337.753 274.778V405.816L357.692 441.537L359.21 444.254H437.884L439.473 274.778H337.753Z" fill="#2F2E41"/>
<path opacity="0.1" d="M337.753 274.778V405.816L357.692 441.537L358.916 274.778H337.753Z" fill="black"/>
<path d="M147.822 271.283V402.321L127.883 438.043L126.366 440.759H47.6908L46.1016 271.283H147.822Z" fill="#2F2E41"/>
<path opacity="0.1" d="M147.822 271.283V402.321L127.883 438.043L126.659 271.283H147.822Z" fill="black"/>
<path d="M463.314 268.662V276.525H35.7705V265.168L75.5048 242.455H428.347L463.314 268.662Z" fill="#2F2E41"/>
<path opacity="0.1" d="M463.314 268.662V276.525H35.7705V265.168L463.314 268.662Z" fill="black"/>
<path opacity="0.1" d="M96.9614 307.974H77.8889L69.9421 301.859H105.703L96.9614 307.974Z" fill="black"/>
<path opacity="0.1" d="M96.9614 333.308H77.8889L69.9421 327.193H105.703L96.9614 333.308Z" fill="black"/>
<path opacity="0.1" d="M96.9614 369.126H77.8889L69.9421 363.01H105.703L96.9614 369.126Z" fill="black"/>
<path opacity="0.1" d="M96.9614 404.942H77.8889L69.9421 398.827H105.703L96.9614 404.942Z" fill="black"/>
<path opacity="0.1" d="M388.613 311.468H407.686L415.632 305.354H379.872L388.613 311.468Z" fill="black"/>
<path opacity="0.1" d="M388.613 336.802H407.686L415.632 330.688H379.872L388.613 336.802Z" fill="black"/>
<path opacity="0.1" d="M388.613 372.62H407.686L415.632 366.505H379.872L388.613 372.62Z" fill="black"/>
<path opacity="0.1" d="M388.613 408.437H407.686L415.632 402.321H379.872L388.613 408.437Z" fill="black"/>
<path d="M302.355 220.594L299.705 239.199C299.705 239.199 286.654 246.82 295.83 247.044C305.006 247.268 348.234 247.044 348.234 247.044C348.234 247.044 356.595 247.044 343.341 238.974L340.69 219.473L302.355 220.594Z" fill="#3F3D56"/>
<path opacity="0.1" d="M293.985 246.842C295.767 245.258 297.682 243.864 299.705 242.68L302.355 224.075L340.69 224.115L343.341 242.456C345.519 243.691 347.572 245.176 349.466 246.886C351.169 246.459 353.029 244.873 343.341 238.974L340.69 219.473L302.355 220.594L299.705 239.198C299.705 239.198 288.739 245.603 293.985 246.842Z" fill="black"/>
<path d="M401.601 90.9222H241.036C237.683 90.9222 234.964 93.9108 234.964 97.5974V216.496C234.964 220.183 237.683 223.172 241.036 223.172H401.601C404.955 223.172 407.673 220.183 407.673 216.496V97.5974C407.673 93.9108 404.955 90.9222 401.601 90.9222Z" fill="#3F3D56"/>
<path d="M401.862 97.983H240.775V197.058H401.862V97.983Z" fill="#F2F2F2"/>
<path d="M321.319 95.9656C321.882 95.9656 322.338 95.4638 322.338 94.8448C322.338 94.2258 321.882 93.7241 321.319 93.7241C320.756 93.7241 320.299 94.2258 320.299 94.8448C320.299 95.4638 320.756 95.9656 321.319 95.9656Z" fill="#F2F2F2"/>
<path d="M407.673 204.903V216.496C407.674 217.373 407.517 218.241 407.211 219.051C406.906 219.861 406.459 220.597 405.895 221.217C405.331 221.837 404.662 222.328 403.925 222.664C403.188 222.999 402.399 223.172 401.601 223.172H241.036C240.239 223.172 239.449 222.999 238.712 222.664C237.976 222.328 237.306 221.837 236.742 221.217C236.178 220.597 235.731 219.861 235.426 219.051C235.121 218.241 234.964 217.373 234.964 216.496V204.903H407.673Z" fill="#3F3D56"/>
<path d="M321.319 218.352C323.459 218.352 325.193 216.446 325.193 214.093C325.193 211.741 323.459 209.835 321.319 209.835C319.179 209.835 317.445 211.741 317.445 214.093C317.445 216.446 319.179 218.352 321.319 218.352Z" fill="#F2F2F2"/>
<path d="M315.281 259.148V261.39H205.579V259.597L205.73 259.148L208.434 251.079H313.038L315.281 259.148Z" fill="#3F3D56"/>
<path d="M357.498 256.954C357.299 257.893 356.544 258.884 354.84 259.82C348.722 263.183 336.284 258.924 336.284 258.924C336.284 258.924 326.7 257.131 326.7 252.423C326.969 252.221 327.25 252.037 327.54 251.874C330.112 250.379 338.64 246.688 353.76 252.031C354.874 252.415 355.869 253.132 356.634 254.101C356.973 254.467 357.228 254.917 357.378 255.413C357.528 255.909 357.57 256.437 357.498 256.954V256.954Z" fill="#3F3D56"/>
<path opacity="0.1" d="M357.499 256.954C350.011 260.107 343.337 260.343 336.488 255.113C333.034 252.477 329.896 251.825 327.541 251.874C330.112 250.379 338.64 246.688 353.76 252.031C354.874 252.415 355.869 253.132 356.634 254.101C356.973 254.467 357.228 254.917 357.378 255.413C357.529 255.909 357.57 256.437 357.499 256.954V256.954Z" fill="black"/>
<path d="M348.111 255.113C349.575 255.113 350.761 254.712 350.761 254.217C350.761 253.721 349.575 253.32 348.111 253.32C346.647 253.32 345.46 253.721 345.46 254.217C345.46 254.712 346.647 255.113 348.111 255.113Z" fill="#F2F2F2"/>
<path opacity="0.1" d="M315.281 259.148V261.39H205.579V259.597L205.73 259.148H315.281Z" fill="black"/>
<path d="M224.071 121.175C236.064 121.175 245.787 110.487 245.787 97.3027C245.787 84.1186 236.064 73.4308 224.071 73.4308C212.078 73.4308 202.355 84.1186 202.355 97.3027C202.355 110.487 212.078 121.175 224.071 121.175Z" fill="#FFB9B9"/>
<path d="M208.07 109.239V146.931H243.501C243.501 146.931 238.929 115.521 241.215 106.098L208.07 109.239Z" fill="#FFB9B9"/>
<path d="M278.361 160.124C278.361 160.124 244.644 141.906 244.644 140.649C244.644 139.393 241.215 131.226 238.929 131.226C236.643 131.226 217.213 124.316 206.355 134.367L205.212 142.534L163.495 172.688L174.924 218.547C174.924 218.547 182.353 227.342 180.067 233.624C177.781 239.906 181.782 271.945 181.782 271.945L271.503 268.804V226.086C271.503 226.086 274.36 216.034 276.075 212.893C277.789 209.752 276.075 200.329 276.075 200.329L289.79 181.483C289.79 181.483 288.076 163.893 278.361 160.124Z" fill="#D0CDE1"/>
<path opacity="0.1" d="M164.923 188.079L167.495 172.688C167.495 172.688 152.637 243.675 154.351 251.842C156.066 260.009 168.638 272.573 170.352 273.201C172.067 273.83 188.068 219.175 188.068 219.175L164.923 188.079Z" fill="black"/>
<path d="M173.21 170.803L163.495 172.688C163.495 172.688 148.636 243.676 150.351 251.842C152.065 260.009 164.638 272.573 166.352 273.201C168.067 273.83 184.068 219.175 184.068 219.175L173.21 170.803Z" fill="#D0CDE1"/>
<path opacity="0.1" d="M281.504 191.848L286.361 181.483C286.361 181.483 293.219 252.47 288.647 259.381C284.075 266.291 265.991 268.877 265.991 268.877L265.788 217.291L281.504 191.848Z" fill="black"/>
<path d="M282.361 173.316L289.79 181.483C289.79 181.483 296.648 252.47 292.076 259.381C287.504 266.291 269.42 268.877 269.42 268.877L269.217 217.291L282.361 173.316Z" fill="#D0CDE1"/>
<path d="M171.495 281.368C171.495 281.368 154.923 274.458 152.065 287.65C149.208 300.843 158.923 359.894 158.923 359.894C158.923 359.894 165.209 404.497 169.209 405.754C173.21 407.01 190.925 407.638 193.783 401.984C196.64 396.33 185.211 338.535 185.211 338.535L251.502 337.279C251.502 337.279 247.501 387.535 245.215 391.933C242.929 396.33 242.929 411.407 245.215 411.407C247.501 411.407 272.646 410.151 274.36 406.382C276.075 402.612 285.79 317.804 285.79 317.804C285.79 317.804 293.791 288.278 284.647 290.163C275.503 292.048 171.495 281.368 171.495 281.368Z" fill="#3F3D56"/>
<path d="M269.217 403.869C269.217 403.869 274.932 399.471 277.789 403.869C280.647 408.266 281.789 413.292 269.217 420.831C256.645 428.369 246.93 426.484 246.93 425.228V407.01L269.217 403.869Z" fill="#2F2E41"/>
<path d="M170.352 401.984C170.352 401.984 164.638 397.587 161.78 401.984C158.923 406.382 157.78 411.407 170.352 418.946C182.925 426.484 192.64 424.6 192.64 423.343V405.125L170.352 401.984Z" fill="#2F2E41"/>
<path d="M224.212 67.2026C222.049 67.12 219.889 67.4583 217.833 68.202C216.239 68.9064 214.716 69.7922 213.289 70.8447L203.702 77.3985C202.888 77.7857 202.197 78.4292 201.715 79.2479C201.234 80.0666 200.983 81.0237 200.996 81.9985L199.798 91.8613C199.496 94.3503 199.217 97.0121 200.23 99.2625C201.076 101.141 202.69 102.426 204.016 103.931C206.139 106.351 207.568 109.403 208.125 112.708C208.811 116.826 208.372 121.784 211.336 124.412C212.942 125.835 215.129 126.104 217.188 126.237C222.817 126.598 228.464 126.359 234.052 125.523C234.94 125.45 235.806 125.183 236.599 124.738C237.607 124.083 238.242 122.926 238.835 121.817C240.976 117.81 243.182 113.547 243.159 108.9C243.148 106.601 242.613 104.132 243.617 102.116C244.147 101.259 244.723 100.436 245.341 99.6534C246.585 97.7331 246.827 95.2656 247.029 92.919C247.676 85.4237 247 79.7198 241.975 74.4399C237.284 69.5113 230.609 67.248 224.212 67.2026Z" fill="#2F2E41"/>
<path d="M170.868 355.584L151.796 462.163H161.332L179.61 357.332L170.868 355.584Z" fill="#2F2E41"/>
<path d="M232.059 364.321L243.98 486.623H251.926L244.774 360.826L232.059 364.321Z" fill="#2F2E41"/>
<path d="M264.641 360.826L281.33 442.07H289.277L273.383 359.079L264.641 360.826Z" fill="#2F2E41"/>
<path d="M201.066 360.826L198.682 425.472H205.04L209.808 360.826H201.066Z" fill="#2F2E41"/>
<path d="M157.358 344.228C157.358 344.228 144.643 250.754 180.404 248.133C216.165 245.513 267.025 248.133 267.025 248.133C267.025 248.133 296.429 245.513 287.687 344.228C287.687 344.228 295.634 373.056 224.112 370.436C152.59 367.815 157.358 344.228 157.358 344.228Z" fill="#283370"/>
<path d="M131.159 184.938H82.3291V247.871H131.159V184.938Z" fill="#3F3D56"/>
<path d="M123.582 194.704H89.906V238.105H123.582V194.704Z" fill="#F2F2F2"/>
<path d="M110.119 203.921L106.699 210.432L103.279 203.921H91.8921L106.699 232.115L121.506 203.921H110.119Z" fill="#01CC88"/>
<path d="M110.119 203.921L106.699 210.432L103.279 203.921H97.8149L106.699 220.836L115.584 203.921H110.119Z" fill="#435466"/>
<path d="M285 118H315V148H285V118Z" fill="#FFB129"/>
<path d="M312.918 141.218C312.695 139.852 311.791 138.705 309.113 137.635C308.182 137.214 307.145 136.912 306.836 136.217C306.726 135.813 306.712 135.585 306.781 135.341C306.981 134.546 307.943 134.299 308.705 134.527C309.196 134.689 309.661 135.062 309.942 135.657C311.253 134.82 311.251 134.825 312.167 134.25C311.831 133.738 311.652 133.502 311.433 133.283C310.644 132.415 309.569 131.968 307.85 132.002L306.955 132.116C306.097 132.33 305.279 132.773 304.8 133.368C303.361 134.977 303.771 137.791 305.522 138.95C307.247 140.225 309.78 140.515 310.104 141.708C310.419 143.168 309.015 143.641 307.619 143.473C306.591 143.262 306.019 142.747 305.4 141.811C304.262 142.46 304.262 142.46 303.092 143.123C303.37 143.721 303.661 143.991 304.126 144.509C306.328 146.709 311.837 146.601 312.825 143.271C312.866 143.156 313.132 142.394 312.918 141.218ZM301.535 132.178H298.692L298.68 139.419C298.68 140.959 298.761 142.371 298.507 142.804C298.091 143.655 297.013 143.549 296.522 143.384C296.022 143.142 295.768 142.798 295.473 142.311C295.392 142.172 295.332 142.064 295.311 142.055L293 143.45C293.384 144.227 293.951 144.901 294.676 145.34C295.759 145.98 297.215 146.177 298.738 145.832C299.729 145.548 300.584 144.959 301.032 144.062C301.679 142.886 301.54 141.463 301.534 139.889C301.549 137.321 301.535 134.754 301.535 132.178Z" fill="#323330"/>
<path d="M381.892 148.868L381.987 148.805C381.798 148.458 381.514 148.143 381.23 147.985L366.002 139.221C365.75 139.063 365.403 139 365.025 139C364.647 139 364.3 139.095 364.048 139.221L348.914 148.017C348.378 148.332 348 149.12 348 149.719V167.281C348 167.627 348.063 168.006 348.284 168.352L348.221 168.384C348.378 168.636 348.599 168.857 348.82 168.983L364.016 177.779C364.268 177.937 364.615 178 364.994 178C365.372 178 365.719 177.905 365.971 177.779L381.104 168.983C381.64 168.668 382.019 167.88 382.019 167.281V149.688C382.05 149.436 382.019 149.152 381.892 148.868V148.868ZM365.025 170.938C358.152 170.938 352.572 165.357 352.572 158.484C352.572 151.611 358.152 146.031 365.025 146.031C369.66 146.031 373.695 148.584 375.839 152.336L371.74 154.701C370.416 152.336 367.894 150.76 365.025 150.76C360.769 150.76 357.301 154.228 357.301 158.484C357.301 162.741 360.769 166.209 365.025 166.209C367.894 166.209 370.416 164.632 371.74 162.299L375.808 164.695C373.664 168.416 369.628 170.938 365.025 170.938V170.938ZM381.104 157.854H380.095L379.812 159.115H381.104V160.691H379.528L379.15 162.583H377.605L377.983 160.691H376.785L376.407 162.583H374.893L375.272 160.691H374.483V159.115H375.587L375.871 157.854H374.483V156.277H376.154L376.533 154.386H378.078L377.699 156.277H378.897L379.276 154.386H380.789L380.411 156.277H381.104V157.854V157.854ZM377.1 159.115H378.298L378.582 157.854H377.384L377.1 159.115Z" fill="#283370"/>
</svg>
