<svg width="144" height="26" viewBox="0 0 144 26" fill="none" xmlns="http://www.w3.org/2000/svg">
<path d="M21.282 0.747999V19H16.836V8.054L12.754 19H9.166L5.058 8.028V19H0.612V0.747999H5.864L10.986 13.384L16.056 0.747999H21.282ZM28.5112 0.877999C30.4872 0.877999 32.1945 1.25067 33.6332 1.996C35.0892 2.724 36.1985 3.77267 36.9612 5.142C37.7412 6.51133 38.1312 8.12333 38.1312 9.978C38.1312 11.8327 37.7412 13.4447 36.9612 14.814C36.1985 16.166 35.0892 17.206 33.6332 17.934C32.1945 18.6447 30.4872 19 28.5112 19H22.8692V0.877999H28.5112ZM28.5112 17.05C30.8512 17.05 32.6365 16.4347 33.8672 15.204C35.0979 13.956 35.7132 12.214 35.7132 9.978C35.7132 7.72467 35.0892 5.96533 33.8412 4.7C32.6105 3.43467 30.8339 2.802 28.5112 2.802H25.2352V17.05H28.5112ZM52.252 11.33C52.252 11.7807 52.226 12.2573 52.174 12.76H40.786C40.8727 14.164 41.3493 15.2647 42.216 16.062C43.1 16.842 44.166 17.232 45.414 17.232C46.4367 17.232 47.286 16.998 47.962 16.53C48.6553 16.0447 49.1407 15.4033 49.418 14.606H51.966C51.5847 15.9753 50.822 17.0933 49.678 17.96C48.534 18.8093 47.1127 19.234 45.414 19.234C44.062 19.234 42.8487 18.9307 41.774 18.324C40.7167 17.7173 39.8847 16.8593 39.278 15.75C38.6713 14.6233 38.368 13.3233 38.368 11.85C38.368 10.3767 38.6627 9.08533 39.252 7.976C39.8413 6.86667 40.6647 6.01733 41.722 5.428C42.7967 4.82133 44.0273 4.518 45.414 4.518C46.766 4.518 47.962 4.81267 49.002 5.402C50.042 5.99133 50.8393 6.806 51.394 7.846C51.966 8.86867 52.252 10.03 52.252 11.33ZM49.808 10.836C49.808 9.93467 49.6087 9.16333 49.21 8.522C48.8113 7.86333 48.2653 7.36933 47.572 7.04C46.896 6.69333 46.142 6.52 45.31 6.52C44.114 6.52 43.0913 6.90133 42.242 7.664C41.41 8.42667 40.9333 9.484 40.812 10.836H49.808ZM58.679 16.816L63.099 4.752H65.621L60.031 19H57.275L51.685 4.752H54.233L58.679 16.816ZM65.0653 11.824C65.0653 10.368 65.3599 9.094 65.9493 8.002C66.5386 6.89267 67.3446 6.03467 68.3673 5.428C69.4073 4.82133 70.5599 4.518 71.8253 4.518C73.0733 4.518 74.1566 4.78667 75.0753 5.324C75.9939 5.86133 76.6786 6.53733 77.1293 7.352V4.752H79.5213V19H77.1293V16.348C76.6613 17.18 75.9593 17.8733 75.0233 18.428C74.1046 18.9653 73.0299 19.234 71.7993 19.234C70.5339 19.234 69.3899 18.922 68.3673 18.298C67.3446 17.674 66.5386 16.7987 65.9493 15.672C65.3599 14.5453 65.0653 13.2627 65.0653 11.824ZM77.1293 11.85C77.1293 10.7753 76.9126 9.83933 76.4793 9.042C76.0459 8.24467 75.4566 7.638 74.7113 7.222C73.9833 6.78867 73.1773 6.572 72.2933 6.572C71.4093 6.572 70.6033 6.78 69.8753 7.196C69.1473 7.612 68.5666 8.21867 68.1333 9.016C67.6999 9.81333 67.4833 10.7493 67.4833 11.824C67.4833 12.916 67.6999 13.8693 68.1333 14.684C68.5666 15.4813 69.1473 16.0967 69.8753 16.53C70.6033 16.946 71.4093 17.154 72.2933 17.154C73.1773 17.154 73.9833 16.946 74.7113 16.53C75.4566 16.0967 76.0459 15.4813 76.4793 14.684C76.9126 13.8693 77.1293 12.9247 77.1293 11.85ZM94.1556 4.752V19H91.7896V16.894C91.3389 17.622 90.7062 18.194 89.8916 18.61C89.0942 19.0087 88.2102 19.208 87.2396 19.208C86.1302 19.208 85.1336 18.9827 84.2496 18.532C83.3656 18.064 82.6636 17.3707 82.1436 16.452C81.6409 15.5333 81.3896 14.4153 81.3896 13.098V4.752H83.7296V12.786C83.7296 14.19 84.0849 15.2733 84.7956 16.036C85.5062 16.7813 86.4769 17.154 87.7076 17.154C88.9729 17.154 89.9696 16.764 90.6976 15.984C91.4256 15.204 91.7896 14.0687 91.7896 12.578V4.752H94.1556ZM101.194 19.234C100.102 19.234 99.1231 19.052 98.2564 18.688C97.3898 18.3067 96.7051 17.7867 96.2024 17.128C95.6998 16.452 95.4224 15.6807 95.3704 14.814H97.8144C97.8838 15.5247 98.2131 16.1053 98.8024 16.556C99.4091 17.0067 100.198 17.232 101.168 17.232C102.07 17.232 102.78 17.0327 103.3 16.634C103.82 16.2353 104.08 15.7327 104.08 15.126C104.08 14.502 103.803 14.0427 103.248 13.748C102.694 13.436 101.836 13.1327 100.674 12.838C99.6171 12.5607 98.7504 12.2833 98.0744 12.006C97.4158 11.7113 96.8438 11.2867 96.3584 10.732C95.8904 10.16 95.6564 9.41467 95.6564 8.496C95.6564 7.768 95.8731 7.10067 96.3064 6.494C96.7398 5.88733 97.3551 5.41067 98.1524 5.064C98.9498 4.7 99.8598 4.518 100.882 4.518C102.46 4.518 103.734 4.91667 104.704 5.714C105.675 6.51133 106.195 7.60333 106.264 8.99H103.898C103.846 8.24467 103.543 7.64667 102.988 7.196C102.451 6.74533 101.723 6.52 100.804 6.52C99.9551 6.52 99.2791 6.702 98.7764 7.066C98.2738 7.43 98.0224 7.90667 98.0224 8.496C98.0224 8.964 98.1698 9.354 98.4644 9.666C98.7764 9.96067 99.1578 10.2033 99.6084 10.394C100.076 10.5673 100.718 10.7667 101.532 10.992C102.555 11.2693 103.387 11.5467 104.028 11.824C104.67 12.084 105.216 12.4827 105.666 13.02C106.134 13.5573 106.377 14.2593 106.394 15.126C106.394 15.906 106.178 16.608 105.744 17.232C105.311 17.856 104.696 18.35 103.898 18.714C103.118 19.0607 102.217 19.234 101.194 19.234ZM120.882 19.182C119.201 19.182 117.667 18.792 116.28 18.012C114.893 17.2147 113.793 16.114 112.978 14.71C112.181 13.2887 111.782 11.694 111.782 9.926C111.782 8.158 112.181 6.572 112.978 5.168C113.793 3.74667 114.893 2.646 116.28 1.866C117.667 1.06867 119.201 0.669999 120.882 0.669999C122.581 0.669999 124.123 1.06867 125.51 1.866C126.897 2.646 127.989 3.738 128.786 5.142C129.583 6.546 129.982 8.14067 129.982 9.926C129.982 11.7113 129.583 13.306 128.786 14.71C127.989 16.114 126.897 17.2147 125.51 18.012C124.123 18.792 122.581 19.182 120.882 19.182ZM120.882 17.128C122.147 17.128 123.283 16.8333 124.288 16.244C125.311 15.6547 126.108 14.814 126.68 13.722C127.269 12.63 127.564 11.3647 127.564 9.926C127.564 8.47 127.269 7.20467 126.68 6.13C126.108 5.038 125.319 4.19733 124.314 3.608C123.309 3.01867 122.165 2.724 120.882 2.724C119.599 2.724 118.455 3.01867 117.45 3.608C116.445 4.19733 115.647 5.038 115.058 6.13C114.486 7.20467 114.2 8.47 114.2 9.926C114.2 11.3647 114.486 12.63 115.058 13.722C115.647 14.814 116.445 15.6547 117.45 16.244C118.473 16.8333 119.617 17.128 120.882 17.128ZM143.378 4.752L134.798 25.708H132.354L135.162 18.844L129.416 4.752H132.042L136.514 16.296L140.934 4.752H143.378Z" fill="white"/>
</svg>
